<mxfile host="app.diagrams.net" modified="2023-12-03T23:29:41.239Z" agent="Mozilla/5.0 (Windows NT 10.0; Win64; x64) AppleWebKit/537.36 (KHTML, like Gecko) Chrome/119.0.0.0 Safari/537.36" version="22.1.5" etag="QgnqntgExd7rBxG4sLRd" type="github">
  <diagram name="PÃ¡gina-1" id="H7WVwIT4ASXLcZSO27H0">
    <mxGraphModel>
      <root>
        <mxCell id="0" />
        <mxCell id="1" parent="0" />
      </root>
    </mxGraphModel>
  </diagram>
</mxfile>
